<svg width="720" height="520" viewBox="0 0 720 520" fill="none" xmlns="http://www.w3.org/2000/svg">
  <rect width="720" height="520" rx="28" fill="#F5F9FD"/>
  <rect x="70" y="64" width="580" height="392" rx="24" fill="#FFFFFF" stroke="#D5DEEA" stroke-width="2"/>
  <circle cx="196" cy="212" r="88" fill="#E8F0F8"/>
  <circle cx="196" cy="184" r="34" fill="#0E5EA8" opacity="0.9"/>
  <path d="M134 284C148 243.333 169.333 223 198 223C226.667 223 248 243.333 262 284" fill="#0E5EA8" opacity="0.88"/>
  <rect x="328" y="136" width="240" height="18" rx="9" fill="#0E5EA8"/>
  <rect x="328" y="174" width="208" height="14" rx="7" fill="#93ABC5"/>
  <rect x="328" y="206" width="224" height="14" rx="7" fill="#CBD8E6"/>
  <rect x="124" y="342" width="444" height="70" rx="18" fill="#F7FAFD" stroke="#D5DEEA" stroke-width="2"/>
  <rect x="150" y="366" width="110" height="14" rx="7" fill="#0E5EA8"/>
  <rect x="286" y="366" width="110" height="14" rx="7" fill="#0E5EA8" fill-opacity="0.8"/>
  <rect x="422" y="366" width="120" height="14" rx="7" fill="#0E5EA8" fill-opacity="0.65"/>
</svg>
