<svg width="720" height="520" viewBox="0 0 720 520" fill="none" xmlns="http://www.w3.org/2000/svg">
  <defs>
    <linearGradient id="panel" x1="48" y1="48" x2="672" y2="472" gradientUnits="userSpaceOnUse">
      <stop stop-color="#F7FBFF"/>
      <stop offset="1" stop-color="#EAF2FA"/>
    </linearGradient>
    <linearGradient id="line" x1="96" y1="132" x2="596" y2="388" gradientUnits="userSpaceOnUse">
      <stop stop-color="#0E5EA8"/>
      <stop offset="1" stop-color="#083F72"/>
    </linearGradient>
    <filter id="shadow" x="32" y="36" width="656" height="448" filterUnits="userSpaceOnUse" color-interpolation-filters="sRGB">
      <feFlood flood-opacity="0" result="BackgroundImageFix"/>
      <feColorMatrix in="SourceAlpha" type="matrix" values="0 0 0 0 0 0 0 0 0 0 0 0 0 0 0 0 0 0 127 0" result="hardAlpha"/>
      <feOffset dy="10"/>
      <feGaussianBlur stdDeviation="12"/>
      <feColorMatrix type="matrix" values="0 0 0 0 0.0627451 0 0 0 0 0.156863 0 0 0 0 0.262745 0 0 0 0.12 0"/>
      <feBlend mode="normal" in2="BackgroundImageFix" result="effect1_dropShadow_1_2"/>
      <feBlend mode="normal" in="SourceGraphic" in2="effect1_dropShadow_1_2" result="shape"/>
    </filter>
  </defs>
  <rect width="720" height="520" rx="28" fill="#F4F8FC"/>
  <g opacity="0.7">
    <path d="M60 98H660" stroke="#D7E3F0" stroke-width="1.5"/>
    <path d="M60 170H660" stroke="#D7E3F0" stroke-width="1.5"/>
    <path d="M60 242H660" stroke="#D7E3F0" stroke-width="1.5"/>
    <path d="M60 314H660" stroke="#D7E3F0" stroke-width="1.5"/>
    <path d="M60 386H660" stroke="#D7E3F0" stroke-width="1.5"/>
    <path d="M132 60V460" stroke="#D7E3F0" stroke-width="1.5"/>
    <path d="M252 60V460" stroke="#D7E3F0" stroke-width="1.5"/>
    <path d="M372 60V460" stroke="#D7E3F0" stroke-width="1.5"/>
    <path d="M492 60V460" stroke="#D7E3F0" stroke-width="1.5"/>
    <path d="M612 60V460" stroke="#D7E3F0" stroke-width="1.5"/>
  </g>
  <g filter="url(#shadow)">
    <rect x="48" y="48" width="624" height="424" rx="24" fill="url(#panel)"/>
    <rect x="78" y="84" width="164" height="92" rx="18" fill="#FFFFFF" stroke="#D5DEEA" stroke-width="2"/>
    <rect x="278" y="84" width="164" height="92" rx="18" fill="#FFFFFF" stroke="#D5DEEA" stroke-width="2"/>
    <rect x="478" y="84" width="164" height="92" rx="18" fill="#FFFFFF" stroke="#D5DEEA" stroke-width="2"/>
    <rect x="178" y="318" width="164" height="92" rx="18" fill="#FFFFFF" stroke="#D5DEEA" stroke-width="2"/>
    <rect x="378" y="318" width="164" height="92" rx="18" fill="#FFFFFF" stroke="#D5DEEA" stroke-width="2"/>
    <path d="M160 176V232H360M560 176V232H360M260 318V260H360M460 318V260H360" stroke="url(#line)" stroke-width="8" stroke-linecap="round" stroke-linejoin="round"/>
    <circle cx="360" cy="232" r="34" fill="#0E5EA8"/>
    <circle cx="360" cy="232" r="16" fill="#FFFFFF" opacity="0.94"/>
    <circle cx="160" cy="176" r="14" fill="#0E5EA8"/>
    <circle cx="560" cy="176" r="14" fill="#0E5EA8"/>
    <circle cx="260" cy="318" r="14" fill="#0E5EA8"/>
    <circle cx="460" cy="318" r="14" fill="#0E5EA8"/>
    <path d="M118 116H202" stroke="#0E5EA8" stroke-width="4" stroke-linecap="round"/>
    <path d="M118 136H212" stroke="#9AB1C9" stroke-width="4" stroke-linecap="round"/>
    <path d="M118 156H190" stroke="#9AB1C9" stroke-width="4" stroke-linecap="round"/>
    <path d="M318 116H402" stroke="#0E5EA8" stroke-width="4" stroke-linecap="round"/>
    <path d="M318 136H414" stroke="#9AB1C9" stroke-width="4" stroke-linecap="round"/>
    <path d="M318 156H390" stroke="#9AB1C9" stroke-width="4" stroke-linecap="round"/>
    <path d="M518 116H602" stroke="#0E5EA8" stroke-width="4" stroke-linecap="round"/>
    <path d="M518 136H612" stroke="#9AB1C9" stroke-width="4" stroke-linecap="round"/>
    <path d="M518 156H590" stroke="#9AB1C9" stroke-width="4" stroke-linecap="round"/>
    <path d="M218 350H302" stroke="#0E5EA8" stroke-width="4" stroke-linecap="round"/>
    <path d="M218 370H314" stroke="#9AB1C9" stroke-width="4" stroke-linecap="round"/>
    <path d="M218 390H286" stroke="#9AB1C9" stroke-width="4" stroke-linecap="round"/>
    <path d="M418 350H502" stroke="#0E5EA8" stroke-width="4" stroke-linecap="round"/>
    <path d="M418 370H514" stroke="#9AB1C9" stroke-width="4" stroke-linecap="round"/>
    <path d="M418 390H488" stroke="#9AB1C9" stroke-width="4" stroke-linecap="round"/>
  </g>
</svg>
