<svg xmlns="http://www.w3.org/2000/svg" width="1200" height="800" viewBox="0 0 1200 800" fill="none">
  <rect width="1200" height="800" fill="#F5F8FC"/>
  <rect x="112" y="120" width="976" height="560" rx="24" fill="#FFFFFF" stroke="#D5DEEA" stroke-width="4"/>
  <rect x="172" y="182" width="300" height="28" rx="14" fill="#0E5EA8" fill-opacity="0.14"/>
  <rect x="172" y="252" width="210" height="290" rx="20" fill="#E8EEF7"/>
  <rect x="420" y="252" width="210" height="290" rx="20" fill="#E8EEF7"/>
  <rect x="668" y="252" width="210" height="290" rx="20" fill="#E8EEF7"/>
  <rect x="916" y="252" width="112" height="290" rx="20" fill="#E8EEF7"/>
  <path d="M252 514V342M500 514V310M748 514V380M972 514V286" stroke="#0E5EA8" stroke-width="20" stroke-linecap="round"/>
  <circle cx="252" cy="322" r="24" fill="#0E5EA8"/>
  <circle cx="500" cy="290" r="24" fill="#0E5EA8"/>
  <circle cx="748" cy="360" r="24" fill="#0E5EA8"/>
  <circle cx="972" cy="266" r="24" fill="#0E5EA8"/>
  <text x="172" y="166" fill="#17212B" font-family="Arial, sans-serif" font-size="42" font-weight="700">Типовой промышленный объект</text>
</svg>