<svg width="720" height="520" viewBox="0 0 720 520" fill="none" xmlns="http://www.w3.org/2000/svg">
  <rect width="720" height="520" rx="28" fill="#F5F9FD"/>
  <rect x="52" y="52" width="616" height="416" rx="24" fill="#FFFFFF" stroke="#D5DEEA" stroke-width="2"/>
  <rect x="86" y="86" width="548" height="68" rx="18" fill="#F7FAFD" stroke="#D5DEEA" stroke-width="2"/>
  <rect x="112" y="110" width="190" height="16" rx="8" fill="#0E5EA8"/>
  <rect x="330" y="110" width="108" height="16" rx="8" fill="#CAD8E8"/>
  <rect x="458" y="110" width="144" height="16" rx="8" fill="#CAD8E8"/>
  <rect x="86" y="180" width="168" height="230" rx="20" fill="#EDF4FB"/>
  <rect x="276" y="180" width="168" height="230" rx="20" fill="#F2F7FC"/>
  <rect x="466" y="180" width="168" height="230" rx="20" fill="#EDF4FB"/>
  <path d="M120 338L154 306L194 330L220 270" stroke="#0E5EA8" stroke-width="8" stroke-linecap="round" stroke-linejoin="round"/>
  <path d="M310 328L346 284L384 292L414 246" stroke="#0E5EA8" stroke-width="8" stroke-linecap="round" stroke-linejoin="round"/>
  <path d="M498 338L530 300L566 320L602 256" stroke="#0E5EA8" stroke-width="8" stroke-linecap="round" stroke-linejoin="round"/>
  <circle cx="154" cy="306" r="10" fill="#0E5EA8"/>
  <circle cx="346" cy="284" r="10" fill="#0E5EA8"/>
  <circle cx="530" cy="300" r="10" fill="#0E5EA8"/>
  <rect x="120" y="206" width="98" height="12" rx="6" fill="#0E5EA8"/>
  <rect x="310" y="206" width="94" height="12" rx="6" fill="#0E5EA8"/>
  <rect x="500" y="206" width="88" height="12" rx="6" fill="#0E5EA8"/>
</svg>
