<svg xmlns="http://www.w3.org/2000/svg" width="1200" height="800" viewBox="0 0 1200 800" fill="none"><rect width="1200" height="800" fill="#F1F8FB"/><rect x="90" y="90" width="1020" height="620" rx="28" fill="#FFFFFF" stroke="#D2E4EA" stroke-width="4"/><rect x="172" y="264" width="860" height="284" rx="28" fill="#E8F4F8"/><path d="M206 394C258 360 310 428 362 394C414 360 466 428 518 394C570 360 622 428 674 394C726 360 778 428 830 394C882 360 934 428 986 394" stroke="#0E5EA8" stroke-width="18" stroke-linecap="round" stroke-linejoin="round"/><circle cx="304" cy="332" r="26" fill="#7AB8CF"/><circle cx="556" cy="332" r="26" fill="#7AB8CF"/><circle cx="808" cy="332" r="26" fill="#7AB8CF"/><rect x="160" y="170" width="280" height="26" rx="13" fill="#0E5EA8" fill-opacity="0.16"/></svg>